<?xml version="1.0" encoding="utf-8"?>
<!-- Generator: Adobe Illustrator 16.0.0, SVG Export Plug-In . SVG Version: 6.00 Build 0)  -->
<!DOCTYPE svg PUBLIC "-//W3C//DTD SVG 1.1//EN" "http://www.w3.org/Graphics/SVG/1.1/DTD/svg11.dtd">
<svg x="0px" y="0px" width="15px" height="15px" viewBox="0 0 128 128">
<g>
	<path d="M82.394,45.228c-4.903-4.885-11.425-7.576-18.364-7.576s-13.461,2.691-18.365,7.577
		c-4.895,4.877-7.59,11.36-7.59,18.253c0,6.893,2.696,13.374,7.59,18.251c4.904,4.887,11.426,7.577,18.365,7.577
		c6.939,0,13.46-2.69,18.364-7.576c4.895-4.877,7.591-11.358,7.591-18.251C89.984,56.589,87.289,50.105,82.394,45.228z"/>
	<path d="M117.016,98.614c16.488-24.634,13.826-58.229-7.991-79.967c-24.85-24.761-65.14-24.761-89.989,0
		c-24.851,24.761-24.851,64.906,0,89.667c21.815,21.738,55.531,24.393,80.254,7.962l-12.143-15.439
		c-6.88,4.251-14.82,6.534-23.117,6.534c-11.75,0-22.8-4.562-31.113-12.844c-8.32-8.291-12.903-19.316-12.903-31.045
		c0-11.73,4.582-22.756,12.903-31.048C41.229,24.151,52.279,19.59,64.03,19.59c11.75,0,22.799,4.561,31.112,12.843
		c8.322,8.292,12.904,19.319,12.904,31.05c-0.001,8.262-2.284,16.169-6.536,23.022L117.016,98.614z"/>
</g>
</svg>
